<?xml version="1.0" standalone="no"?>
<!DOCTYPE svg PUBLIC "-//W3C//DTD SVG 20010904//EN"
 "http://www.w3.org/TR/2001/REC-SVG-20010904/DTD/svg10.dtd">
<svg version="1.0" xmlns="http://www.w3.org/2000/svg"
 width="50.000000pt" height="50.000000pt" viewBox="0 0 50.000000 50.000000"
 preserveAspectRatio="xMidYMid meet">

<g transform="translate(0.000000,50.000000) scale(0.100000,-0.100000)"
fill="#000000" stroke="none">
<path d="M161 483 c-88 -31 -161 -136 -161 -233 0 -60 30 -130 75 -175 117
-117 308 -91 392 53 24 40 28 58 28 122 0 64 -4 82 -28 122 -63 108 -187 153
-306 111z m179 -24 c25 -11 56 -30 69 -42 36 -33 71 -115 71 -167 0 -49 -29
-122 -63 -159 -33 -36 -115 -71 -167 -71 -52 0 -134 35 -167 71 -61 66 -78
170 -42 249 27 60 54 88 114 116 62 29 125 30 185 3z"/>
<path d="M140 373 c0 -5 19 -65 42 -135 42 -125 43 -127 73 -128 30 0 31 3 78
128 26 70 47 130 47 135 0 4 -16 7 -35 7 -25 0 -35 -4 -35 -16 0 -9 -10 -50
-22 -91 -24 -84 -24 -85 -59 35 -21 71 -21 72 -55 72 -19 0 -34 -3 -34 -7z"/>
</g>
</svg>
